<?xml version="1.0" standalone="no"?>
<!DOCTYPE svg PUBLIC "-//W3C//DTD SVG 20010904//EN"
 "http://www.w3.org/TR/2001/REC-SVG-20010904/DTD/svg10.dtd">
<svg version="1.0" xmlns="http://www.w3.org/2000/svg"
 width="99.000000pt" height="99.000000pt" viewBox="0 0 99.000000 99.000000"
 preserveAspectRatio="xMidYMid meet">
<metadata>
Created by potrace 1.11, written by Peter Selinger 2001-2013
</metadata>
<g transform="translate(0.000000,99.000000) scale(0.100000,-0.100000)"
fill="#000000" stroke="none">
<path d="M454 879 c-66 -8 -128 -30 -156 -56 -14 -13 -21 -14 -30 -5 -7 7 -8
12 -4 12 5 0 3 7 -4 15 -16 19 -26 19 -34 -1 -4 -11 1 -22 14 -31 20 -14 20
-14 -5 -47 -61 -80 -79 -165 -56 -268 15 -71 58 -131 121 -170 46 -29 48 -31
38 -59 -8 -23 -6 -35 8 -57 36 -55 92 -89 139 -86 34 3 39 -5 21 -36 -7 -12
-7 -13 5 -2 8 7 14 18 14 23 0 12 71 39 80 31 3 -3 5 2 5 11 0 17 32 40 44 32
3 -3 4 -2 1 2 -3 3 0 12 6 20 7 8 9 30 6 57 -6 38 -4 44 16 53 67 31 120 104
131 184 3 19 8 52 12 74 8 54 -9 112 -51 174 -32 49 -33 51 -14 61 21 12 25
35 7 46 -6 4 -19 -3 -29 -15 l-19 -23 -52 26 c-29 14 -71 28 -93 31 -22 3 -44
7 -50 9 -5 1 -37 -1 -71 -5z"/>
<path d="M366 152 c-3 -5 1 -9 9 -9 8 0 15 4 15 9 0 4 -4 8 -9 8 -6 0 -12 -4
-15 -8z"/>
<path d="M575 120 c-3 -5 -12 -7 -20 -3 -10 3 -15 -1 -14 -13 0 -11 3 -14 6
-6 2 6 8 10 13 7 4 -3 13 2 20 10 7 8 10 15 7 15 -3 0 -8 -4 -12 -10z"/>
<path d="M367 109 c7 -7 15 -10 18 -7 3 3 -2 9 -12 12 -14 6 -15 5 -6 -5z"/>
<path d="M473 113 c4 -6 1 -14 -5 -16 -10 -4 -10 -6 0 -6 7 -1 10 -6 6 -13 -4
-6 -3 -8 4 -5 12 8 10 32 -3 44 -4 4 -5 3 -2 -4z"/>
<path d="M426 72 c-3 -5 1 -9 9 -9 8 0 12 4 9 9 -3 4 -7 8 -9 8 -2 0 -6 -4 -9
-8z"/>
</g>
</svg>
